<svg xmlns="http://www.w3.org/2000/svg" aria-hidden="true" style="position:absolute;width:0;height:0;overflow:hidden"><defs>
<symbol id="icon-antenna" viewBox="0 0 32 32"><path fill="#2e2f42" d="m30.77 22.1-8.44-8.5.94-4.62c.24.1.5.14.75.14h.01a2.16 2.16 0 1 0-2-1.43l-4.97.6L8.97.16A.53.53 0 0 0 8.6 0a.53.53 0 0 0-.37.16l-1.51 1.5c-.2.2-.2.55 0 .75l.81.83a14.94 14.94 0 0 0 2.52 17.66c.05.04.1.08.15.1-.04.18-.05.36-.05.55v6.18h-6.4a2.67 2.67 0 0 0-2.67 2.67v1.07c0 .3.24.53.53.53h24.54c.29 0 .53-.24.53-.53V30.4c0-1.47-1.2-2.66-2.67-2.66h-6.4v-2.75a14.85 14.85 0 0 0 10.09-1.46l.82.82a.53.53 0 0 0 .75 0l1.51-1.5c.2-.2.2-.54 0-.75zM23.28 6.23a1.07 1.07 0 1 1 .75 1.82 1.07 1.07 0 0 1-.75-1.82zm-1.26 3.5-.6 2.95-1.17-1.18 1.78-1.76zm-.6-.9-1.92 1.92L18 9.25l3.4-.41zM24 28.8c.89 0 1.6.72 1.6 1.6v.53H2.14v-.53c0-.88.71-1.6 1.6-1.6H24zm-7.46-2.13v1.06H11.2v-1.06h5.34zM11.2 25.6v-4.05c0-1.3 1.2-2.35 2.67-2.35s2.67 1.05 2.67 2.35v4.05H11.2zm6.4-1.7v-2.35c0-1.89-1.67-3.42-3.73-3.42a3.8 3.8 0 0 0-3.28 1.79A13.87 13.87 0 0 1 8.31 4.03l18.6 18.71a13.82 13.82 0 0 1-9.3 1.16zm11.3-.68L7.83 2.04l.75-.75 7.94 7.98 13.12 13.2-.76.75z" style="fill:var(--color1, #2e2f42)"/><path fill="#4d5ae5" d="M13.88 20.27a1.6 1.6 0 1 0-.01 3.2 1.6 1.6 0 1 0 0-3.2zm.37 1.98c-.1.1-.24.15-.38.15a.53.53 0 0 1 0-1.07.53.53 0 0 1 .37.92z" style="fill:var(--color2, #4d5ae5)"/></symbol>
<symbol id="icon-clock" viewBox="0 0 32 32"><path fill="#2e2f42" d="M31.3 15.3a15.3 15.3 0 1 0-19.96 14.58l.18.03c.12 0 .24-.03.35-.1.13-.07.23-.2.28-.35L16 17.21a1.91 1.91 0 1 0-.84-3.63l-5.1-5.1a.64.64 0 0 0-.9.9l5.1 5.1c-.4.8-.17 1.77.53 2.31l-3.68 11.67a14.04 14.04 0 1 1 10.57-.35l-.4-1.87a.64.64 0 0 0-1.05-.34l-3.83 3.42a.64.64 0 0 0 .23 1.09l4.9 1.56a.64.64 0 0 0 .82-.74l-.4-1.84A15.26 15.26 0 0 0 31.3 15.3zM16 14.66a.64.64 0 1 1 0 1.28.64.64 0 0 1 0-1.28zm2.1 14.87 2.18-1.95.6 2.84-2.79-.9z" style="fill:var(--color1, #2e2f42)"/><path fill="#4d5ae5" d="M15.35 3.19v1.27a.64.64 0 1 0 1.28 0V3.19a.64.64 0 0 0-1.28 0zM3.88 14.66a.64.64 0 0 0 0 1.28h1.27a.64.64 0 1 0 0-1.28H3.88zM28.1 15.94a.64.64 0 1 0 0-1.28h-1.27a.64.64 0 0 0 0 1.28h1.28z" style="fill:var(--color2, #4d5ae5)"/></symbol>
<symbol id="icon-diagram" viewBox="0 0 32 32"><path fill="#4d5ae5" d="M14.93 14.96h1.06v4.8h-1.06v-4.8zM19.19 17.1h1.07v2.66h-1.07V17.1zM10.66 18.7h1.07v1.06h-1.07V18.7zM7.46 18.16h1.07v1.6H7.46v-1.6z" style="fill:var(--color2, #4d5ae5)"/><path fill="#2e2f42" d="M1.6 28.3h25.59c.88 0 1.6-.73 1.6-1.6v-2.14c0-.88-.72-1.6-1.6-1.6h-.54V9.66l3.03-2.86a1.6 1.6 0 1 0-.75-.76L26.65 8.2V6.97c0-.88-.71-1.6-1.6-1.6H3.73c-.88 0-1.6.72-1.6 1.6v16H1.6c-.88 0-1.6.7-1.6 1.6v2.12c0 .89.72 1.6 1.6 1.6zM30.38 4.83a.53.53 0 1 1 0 1.06.53.53 0 0 1 0-1.06zM3.2 6.97c0-.3.24-.53.53-.53h21.32c.3 0 .54.23.54.53V9.2l-1.07 1.01V8.03c0-.29-.24-.53-.53-.53H4.79c-.29 0-.53.24-.53.53v13.33c0 .3.24.53.54.53h19.19c.3 0 .53-.23.53-.53V11.7l1.07-1.01v12.28H3.19v-16zM8 13.9a1.6 1.6 0 1 0 1.1 2.75l1.86.93c.21.1.47.06.63-.12l3.94-4.44 3.87 2.9c.21.16.5.14.69-.03l3.36-3.2v8.14H5.33V8.57h18.12v2.66l-3.77 3.57-3.9-2.93a.53.53 0 0 0-.72.08l-4 4.49-1.49-.75c.02-.06.02-.13.02-.19 0-.88-.71-1.6-1.6-1.6zm.53 1.6a.53.53 0 1 1-1.07 0 .53.53 0 0 1 1.07 0zm3.2 8.53h5.33v.53c0 .3-.24.53-.53.53h-4.27a.53.53 0 0 1-.53-.53v-.53zm-10.66.53c0-.3.24-.53.53-.53h9.06v.53c0 .88.72 1.6 1.6 1.6h4.26c.89 0 1.6-.72 1.6-1.6v-.53h9.06c.3 0 .54.24.54.53v2.13c0 .3-.24.53-.53.53H1.59a.53.53 0 0 1-.52-.53v-2.13z" style="fill:var(--color1, #2e2f42)"/></symbol>
<symbol id="icon-astronaut" viewBox="0 0 32 32"><path fill="#4d5ae5" d="M31.97 4.52a.53.53 0 0 0-.43-.36l-1.9-.28-.86-1.73c-.18-.36-.78-.36-.96 0l-.85 1.73-1.91.28a.54.54 0 0 0-.3.91l1.38 1.35-.32 1.9c-.04.2.05.4.21.52.17.12.38.14.56.04l1.71-.9 1.71.9a.54.54 0 0 0 .78-.56l-.33-1.9 1.38-1.35c.15-.14.2-.35.14-.55zm-2.46 1.33a.53.53 0 0 0-.15.47l.19 1.12-1-.53a.53.53 0 0 0-.5 0l-1 .53.2-1.12a.53.53 0 0 0-.16-.47l-.81-.79 1.12-.16a.53.53 0 0 0 .4-.3l.5-1 .5 1c.08.16.23.27.4.3l1.12.16-.8.8zM26.13 20.52h-1.06v1.07h1.06v-1.07zM26.13 22.66h-1.06v1.06h1.06v-1.06zM27.2 21.59h-1.07v1.07h1.07v-1.07zM25.07 21.59H24v1.07h1.07v-1.07zM22.4 26.39h-1.07v1.07h1.07v-1.07zM22.4 28.52h-1.07v1.07h1.07v-1.07zM23.47 27.46H22.4v1.06h1.07v-1.06zM21.33 27.46h-1.06v1.06h1.06v-1.06zM16 24.26h-1.07v1.06H16v-1.06zM16 26.39h-1.07v1.07H16v-1.07zM17.07 25.32H16v1.07h1.07v-1.07zM14.93 25.32h-1.06v1.07h1.06v-1.07zM5.87 6.12H4.8V7.2h1.07V6.12zM5.87 8.26H4.8v1.06h1.07V8.26zM6.93 7.19H5.87v1.07h1.06V7.19zM4.8 7.19H3.73v1.07H4.8V7.19z" style="fill:var(--color2, #4d5ae5)"/><path fill="#2e2f42" d="M24.71 14.16c-.28-.39-.7-.64-1.18-.7-.48-.07-.96.05-1.34.35l-1.26.96-1.9 1.41-1.35-.54A6.94 6.94 0 0 0 14.83 2.4a6.96 6.96 0 0 0-6.96 6.93c0 1.39.42 2.68 1.12 3.76l-2.76-.02H6.2l-.16.03-.03.02h-.02l-3.24 1.6-1.89.9a1.78 1.78 0 0 0 .93 3.3c.3.01.58-.06.84-.2l1.4-.74 2.26-1.17h1.35L2.2 22.2.86 23.55a1.65 1.65 0 0 0 0 2.35 1.67 1.67 0 0 0 2.36 0l1.31-1.3 1.74-1.3.9.89-1.76 1.75-1.34 1.34a1.65 1.65 0 0 0 0 2.36 1.67 1.67 0 0 0 2.36 0l3.48-3.47 1.01-1 .02-.02 5.17-5.66 3.47.5h.07c.07 0 .13-.02.2-.04l.04-.02.06-.03 3.21-2.13.03-.03.04-.03 1.27-1.19c.67-.62.76-1.63.22-2.36zM2.14 17.77a.71.71 0 0 1-.56.05.72.72 0 0 1-.21-1.26l1.31-.63.45 1.31-.99.53zm3.5-1.83-1.55.8-.44-1.28 2.03-1-.04 1.48zm15.1-6.62c0 .92-.22 1.79-.6 2.56l-4.18-1.9a1.86 1.86 0 0 0-.8-1.39l1.47-4.86a5.88 5.88 0 0 1 4.1 5.6zm-11.8 0a5.89 5.89 0 0 1 6.65-5.81l-1.44 4.75h-.05a1.87 1.87 0 1 0 0 3.73c.7 0 1.3-.38 1.62-.95l3.86 1.76A5.9 5.9 0 0 1 8.94 9.32zm5.96.8a.8.8 0 0 1-1.6 0 .8.8 0 0 1 1.6 0zM2.46 25.15a.6.6 0 0 1-.85 0 .6.6 0 0 1 0-.85l.96-.95.85.84-.96.96zm3.22 3.73a.6.6 0 0 1-.86 0 .6.6 0 0 1 0-.84l.97-.96.85.85-.96.95zm3.48-3.47-1.77 1.76-.85-.85 1.76-1.75c.05-.04.07-.09.1-.14l.02-.04c.02-.04.02-.08.03-.13l.01-.07-.02-.1c0-.04 0-.07-.02-.1a.55.55 0 0 0-.09-.14l-.02-.04-1.61-1.6-.06-.04a.5.5 0 0 0-.09-.05.51.51 0 0 0-.09-.04.5.5 0 0 0-.1-.02.5.5 0 0 0-.1 0l-.1.03a.48.48 0 0 0-.1.04l-.06.03-1.77 1.33-.9-.9 2.4-2.39 4.36 4.3-.93.91zm6.82-7.02h-.05a.56.56 0 0 0-.3.08.5.5 0 0 0-.08.06l-.04.03-4.7 5.15-4.33-4.26 2.84-2.82a.53.53 0 0 0-.38-.9H6.72l.03-1.6 3.1.02a6.95 6.95 0 0 0 6.26 1.98c.04.03.08.07.13.09l2.41.96.15.75.18.89-3-.43zm4.04.18-.31-1.56 1.44-1.08.95 1.26-2.08 1.38zm3.75-2.83-.83.79-.94-1.24.84-.64a.73.73 0 0 1 .54-.14.72.72 0 0 1 .4 1.23z" style="fill:var(--color1, #2e2f42)"/><path fill="#2e2f42" d="m13.6 18.54-2.14-2.13a.53.53 0 0 0-.75 0l-2.15 2.13a.54.54 0 0 0 0 .76l2.15 2.13a.54.54 0 0 0 .75 0l2.14-2.13a.54.54 0 0 0 0-.76zm-2.52 1.76L9.7 18.92l1.38-1.38 1.39 1.38-1.39 1.38zM17.16 5.07l-.25 1.04c.07.01 1.73.45 1.73 2.15h1.07c0-2.02-1.66-2.97-2.55-3.19zM19.71 9.32h-1.07v1.07h1.07V9.32z" style="fill:var(--color1, #2e2f42)"/></symbol>
<symbol id="icon-Client-1" viewBox="0 0 61 32"><path fill="#8e8f99" d="M25.45 8.36 28 10.8h-4.73v11.78h12.37v-4.5l2.54 2.42V8.36H25.46zm10.07 9.42-7.22-6.89h7.22v6.89zm-2.24 3.06h-8.05v-7.92h.57v7.39h7.48v.53zm-6.45 3.91.3-.62h.25l-.43.82v.48h-.23v-.48l-.43-.82h.25l.3.62zm1.11-.62H28l.5 1.3h-.24l-.1-.3h-.5l-.11.3h-.23l.48-1.3h.15zm-.24.82h.38l-.19-.55-.19.55zm1.57-.22c-.05.03-.09.06-.12.1l-.1.1c-.02.04-.03.1-.03.15 0 .07.02.13.05.19s.09.1.15.13a.58.58 0 0 0 .42.01l.14-.07.07.09h.25l-.19-.23a.55.55 0 0 0 .1-.21.85.85 0 0 0 .01-.18h-.18c0 .07-.01.13-.03.19l-.03.05-.25-.3.09-.07.09-.07c.03-.02.04-.06.06-.1a.27.27 0 0 0 .02-.1c0-.06-.01-.1-.04-.15s-.06-.08-.1-.1a.34.34 0 0 0-.18-.04c-.07 0-.13 0-.18.04s-.09.06-.11.1-.05.11-.05.18c0 .05.01.09.03.13a.81.81 0 0 0 .1.16zm.1.13.29.34a.33.33 0 0 1-.2.07c-.06 0-.1 0-.13-.02l-.07-.08a.22.22 0 0 1 .02-.22.34.34 0 0 1 .07-.07l.02-.02zm.05-.23-.01-.02c-.03-.03-.04-.06-.06-.1s-.02-.05-.02-.08c0-.02 0-.05.02-.07l.04-.05a.13.13 0 0 1 .08-.03c.04 0 .08.02.1.04s.04.06.04.09l-.03.09a.26.26 0 0 1-.08.07l-.08.06zm2.26.37c0 .09-.03.16-.07.23s-.1.12-.17.15-.16.06-.26.06c-.08 0-.15-.01-.22-.04s-.12-.07-.16-.12c-.05-.06-.08-.12-.1-.2s-.04-.15-.04-.25v-.1c0-.1.01-.18.03-.26s.06-.14.11-.19c.05-.05.1-.1.17-.12s.13-.05.22-.05c.1 0 .19.02.26.06s.12.1.16.16c.04.07.07.14.07.23h-.22c0-.06-.02-.1-.04-.14s-.05-.08-.08-.1a.31.31 0 0 0-.15-.03c-.06 0-.1.01-.14.03s-.07.05-.1.08c-.02.04-.04.08-.05.14l-.02.18v.11c0 .07 0 .12.02.18l.05.13c.02.04.06.07.1.1s.07.02.13.02.11 0 .15-.03.07-.05.1-.08a.4.4 0 0 0 .03-.15h.22zm1.24-.19v-.07c0-.1-.02-.18-.04-.26s-.06-.14-.11-.2c-.05-.05-.1-.1-.17-.12s-.14-.05-.22-.05c-.08 0-.15.02-.22.05s-.12.07-.17.12c-.04.06-.08.12-.1.2s-.05.16-.05.26v.07c0 .1.02.19.04.27s.07.14.12.2a.49.49 0 0 0 .38.16c.08 0 .16-.01.22-.04s.12-.07.17-.12c.05-.06.08-.12.11-.2s.04-.17.04-.27zm-.23-.07v.07c0 .08 0 .14-.02.2l-.06.14a.26.26 0 0 1-.23.11c-.05 0-.09 0-.13-.03s-.07-.05-.1-.08L32.1 25a.56.56 0 0 1-.02-.2v-.07c0-.07 0-.13.02-.19l.06-.14c.03-.04.06-.06.1-.08s.08-.03.13-.03.1 0 .14.03c.03.02.07.04.1.08s.04.09.05.14c.02.06.03.12.03.2z" style="fill:var(--color3, #8e8f99)"/></symbol>
<symbol id="icon-Client-2" viewBox="0 0 61 32"><path fill="#8e8f99" d="m29.86 7.98.26.01h.03c.43.03.86.1 1.29.2V7.15a7.76 7.76 0 0 0-1.87-.24h-.15a10.83 10.83 0 0 0-5.5 1.5v10.32a11.48 11.48 0 0 1 4.96-1.4h.03l.39-.01v-1.06a12.5 12.5 0 0 0-3.97.7l-.37.12V9.03l.16-.08a10.3 10.3 0 0 1 4.3-.98h.44zm1.83 1.06a11.4 11.4 0 0 0 6.21-1.39V17.8a10.83 10.83 0 0 1-7.52 1.25V8.85a8.52 8.52 0 0 0 1.31.19zm5.16.08-.36.12a12.46 12.46 0 0 1-4.75.68l-.3-.02v8.28l.25.03a9.73 9.73 0 0 0 5-.96l.16-.08V9.12zM24.63 22.26a.54.54 0 0 0-.4-.17.61.61 0 0 0-.24.05c-.07.02-.13.07-.19.12s-.09.11-.12.18a.6.6 0 0 0-.04.23v1.38c0 .1.02.2.06.28.03.08.08.14.13.19.06.05.12.08.2.1a.8.8 0 0 0 .2.03.59.59 0 0 0 .57-.58v-.16h-.36v.12c0 .05 0 .09-.02.13a.24.24 0 0 1-.05.08.22.22 0 0 1-.08.04.27.27 0 0 1-.07 0 .18.18 0 0 1-.17-.06.32.32 0 0 1-.05-.19v-1.29c0-.07.01-.14.04-.2l.08-.07c.03-.02.07-.02.1-.01l.09.01c.03.01.05.04.07.06a.3.3 0 0 1 .06.19v.12h.36v-.14a.64.64 0 0 0-.17-.44zM26.77 22.24a.64.64 0 0 0-.4-.15.61.61 0 0 0-.41.15.58.58 0 0 0-.2.46v1.33c0 .09.02.18.06.27.03.07.08.13.14.18.05.05.12.1.19.12.07.02.14.04.21.04a.62.62 0 0 0 .41-.16.57.57 0 0 0 .2-.45V22.7c0-.09-.02-.18-.06-.26a.58.58 0 0 0-.14-.2zm-.16 1.79c0 .03 0 .07-.02.1l-.06.09a.27.27 0 0 1-.34 0 .24.24 0 0 1-.07-.2V22.7c0-.03 0-.07.02-.1l.05-.09a.27.27 0 0 1 .34 0 .24.24 0 0 1 .08.2v1.32zM29.59 24.62v-2.5h-.35l-.45 1.32h-.01l-.46-1.33h-.34v2.5h.36V23.1l.35 1.08h.18l.35-1.08v1.53h.37zM31.62 22.29a.5.5 0 0 0-.2-.14.81.81 0 0 0-.26-.04h-.53v2.5h.35v-.97h.19c.11 0 .22-.02.32-.07a.52.52 0 0 0 .2-.19.61.61 0 0 0 .08-.22 1.81 1.81 0 0 0-.02-.64.53.53 0 0 0-.13-.23zm-.18.76c0 .05-.02.1-.04.13a.2.2 0 0 1-.09.09.36.36 0 0 1-.17.03h-.16v-.85h.19c.05 0 .1 0 .16.03a.2.2 0 0 1 .08.1c.02.04.03.08.03.13v.34zM33.31 22.11h-.3l-.54 2.5h.35l.1-.53h.5l.1.54h.36l-.57-2.5zm-.33 1.63.18-.9.18.9h-.36zM35.62 23.62l-.55-1.5h-.34v2.5h.36v-1.5l.55 1.5h.33v-2.5h-.35v1.5zM37.8 22.11l-.29 1-.3-1h-.37l.49 1.45v1.06h.36v-1.06l.49-1.45h-.38zM23.64 25.32h.17v.49h.12v-.48h.17v-.1h-.46v.1zM25.08 25.23l-.22.58h.12l.05-.13h.23l.05.13h.13l-.23-.58h-.13zm-.02.35.08-.22.08.22h-.16zM26.51 25.6h.14v.07a.22.22 0 0 1-.14.05.15.15 0 0 1-.13-.06.24.24 0 0 1-.04-.15c0-.13.06-.2.17-.2a.12.12 0 0 1 .13.1l.12-.02c-.03-.12-.11-.18-.25-.18a.3.3 0 0 0-.2.08.28.28 0 0 0-.09.22c0 .08.03.16.08.22l.1.07c.04.02.08.02.12.02.09 0 .18-.03.25-.1v-.22h-.26v.1zM27.97 25.23h-.12v.58h.41v-.1h-.29v-.48zM29.2 25.23h-.11v.58h.12v-.58zM30.41 25.61l-.23-.38h-.12v.58h.11v-.38l.23.38h.12v-.58h-.1v.38zM31.5 25.55h.3v-.1h-.3v-.12h.32v-.1h-.43v.58h.44v-.1h-.33v-.16zM34.15 25.46h-.23v-.23h-.12v.58h.12v-.25h.23v.25h.12v-.58h-.12v.23zM35.25 25.55h.29v-.1h-.3v-.12h.32v-.1h-.43v.58h.44v-.1h-.32v-.16zM36.74 25.55c.1-.01.15-.07.15-.16a.14.14 0 0 0-.06-.13.33.33 0 0 0-.17-.03h-.25v.58h.12v-.24h.1l.04.05.13.19h.14l-.08-.12a.4.4 0 0 0-.12-.14zm-.12-.08h-.09v-.14h.1a.3.3 0 0 1 .11 0l.02.04v.06l-.02.03a.34.34 0 0 1-.12.01zM37.86 25.55h.29v-.1h-.3v-.12h.32v-.1h-.43v.58h.44v-.1h-.32v-.16z" style="fill:var(--color3, #8e8f99)"/></symbol>
<symbol id="icon-Client-3" viewBox="0 0 61 32"><path fill="#8e8f99" d="M25.02 23.72h.02l.01.01.08.08a.65.65 0 0 1-.22.14.88.88 0 0 1-.32.05c-.1 0-.2-.01-.3-.05a.62.62 0 0 1-.42-.61c-.01-.1 0-.18.05-.27a.62.62 0 0 1 .15-.2c.07-.07.15-.11.24-.14a.95.95 0 0 1 .6 0c.08.02.15.06.22.11l-.07.08-.02.02H25l-.04-.03-.05-.02a.7.7 0 0 0-.5-.02.46.46 0 0 0-.29.26.54.54 0 0 0-.04.21c0 .08.01.15.04.22a.46.46 0 0 0 .28.26.6.6 0 0 0 .2.03h.13a.5.5 0 0 0 .27-.12l.03-.01zM27.34 23.34c0 .09-.02.18-.05.27a.64.64 0 0 1-.39.34 1 1 0 0 1-.61 0 .7.7 0 0 1-.24-.14.6.6 0 0 1-.15-.2.69.69 0 0 1 0-.54.62.62 0 0 1 .39-.34c.2-.07.41-.07.6 0 .1.03.18.08.25.13a.62.62 0 0 1 .2.48zm-.21 0a.54.54 0 0 0-.04-.22.45.45 0 0 0-.28-.26.72.72 0 0 0-.44 0 .48.48 0 0 0-.17.1.42.42 0 0 0-.1.16.62.62 0 0 0 0 .43.45.45 0 0 0 .27.26c.14.05.3.05.44 0a.44.44 0 0 0 .28-.26.55.55 0 0 0 .04-.21zM28.92 23.56l.02.05.03-.05a.4.4 0 0 1 .02-.04l.52-.8c0-.02.01-.02.02-.03h.2v1.3h-.18v-1.04l-.52.8c0 .02-.01.03-.03.03l-.04.02h-.03c-.02 0-.03 0-.04-.02l-.03-.03-.54-.8v1.03h-.17v-1.3h.15l.04.01c.02 0 .03.02.03.03l.53.8a.3.3 0 0 1 .02.04zM30.85 23.5v.48h-.2V22.7h.45a1 1 0 0 1 .25.03.5.5 0 0 1 .18.08c.04.03.08.08.1.13.02.05.03.1.03.16s-.01.11-.04.17a.36.36 0 0 1-.1.13.53.53 0 0 1-.18.08.9.9 0 0 1-.24.03h-.25zm0-.14h.25c.05 0 .1 0 .15-.02a.34.34 0 0 0 .11-.06.25.25 0 0 0 .1-.2c0-.03 0-.06-.02-.1l-.07-.08a.43.43 0 0 0-.27-.07h-.25v.53zM33.55 23.99h-.16c-.01 0-.03 0-.04-.02a.08.08 0 0 1-.03-.03l-.13-.3h-.69l-.14.3-.03.03a.08.08 0 0 1-.04.02h-.16l.6-1.3h.21l.61 1.3zm-1-.48h.57l-.24-.53a.9.9 0 0 1-.04-.12l-.02.06-.03.06-.23.53zM34.42 22.7a.1.1 0 0 1 .03.02l.88.98v-1.01h.18v1.3h-.1l-.04-.01-.04-.03-.87-.97v1.01h-.18v-1.3h.1a.1.1 0 0 1 .04 0zM36.98 23.47v.52h-.2v-.52l-.55-.78h.18l.04.01a.1.1 0 0 1 .03.03l.35.5a.68.68 0 0 1 .06.12l.02-.06a.5.5 0 0 1 .04-.06l.34-.5.03-.03c0-.01.02-.02.04-.01h.18l-.55.78zM28.82 20.52l.27.02c1.35-.52 2.5-1.37 3.3-2.44s1.2-2.31 1.16-3.58l-1.5-1.28c.31 1.35.17 2.75-.4 4.03s-1.55 2.41-2.83 3.25z" style="fill:var(--color3, #8e8f99)"/><path fill="#8e8f99" d="M28.29 20.46h.04c1.36-.83 2.4-2 2.98-3.34s.68-2.8.28-4.2l-2.13-1.81c.86 1.5 1.21 3.16 1 4.82s-.96 3.22-2.17 4.53zM35.5 16.02A6.53 6.53 0 0 1 33 19.6c-.37.27-.77.51-1.19.72 1.03-.25 1.98-.71 2.76-1.33s1.4-1.39 1.8-2.24l-.87-.74z" style="fill:var(--color3, #8e8f99)"/><path fill="#8e8f99" d="m35.16 15.81-1.23-1.05c-.02 1.2-.42 2.37-1.15 3.39s-1.77 1.85-3 2.41c.28 0 .55-.01.83-.04 1.15-.4 2.17-1.05 2.97-1.87s1.34-1.8 1.58-2.84zM28.47 10.34 27 9.1c-1.3.43-2.43 1.2-3.23 2.18s-1.22 2.16-1.23 3.36c.01 1.32.53 2.6 1.49 3.65s2.3 1.79 3.8 2.1c1.34-1.4 2.13-3.12 2.24-4.92s-.45-3.6-1.6-5.12zM38.55 15.62c-.01-1.57-.74-3.08-2.04-4.2s-3.07-1.73-4.9-1.74c-.86 0-1.7.14-2.5.4l8.97 7.66c.3-.68.47-1.4.47-2.12z" style="fill:var(--color3, #8e8f99)"/></symbol>
<symbol id="icon-Client-4" viewBox="0 0 61 32"><path fill="#8e8f99" d="M20.4 13.64c-.88 0-1.58.64-1.58 1.42 0 .78.7 1.42 1.57 1.42.87 0 1.57-.64 1.57-1.42 0-.78-.7-1.42-1.57-1.42zM31.99 13.19c0-1.09-.49-2.13-1.34-2.9s-2-1.2-3.21-1.2c-1.2 0-2.36.44-3.21 1.2s-1.34 1.81-1.34 2.9v6s9.1-.92 9.1-6zM15.64 21.15c0 .75.33 1.48.92 2.01a3.37 3.37 0 0 0 4.47 0c.6-.53.93-1.26.93-2.01v-4.17s-6.33.64-6.33 4.17zm3.16.74c-.16 0-.32-.04-.46-.12s-.24-.2-.3-.34-.08-.28-.05-.43c.03-.14.1-.28.23-.38s.26-.18.42-.2c.16-.03.33-.02.48.04s.28.15.37.27a.7.7 0 0 1-.1.95c-.08.07-.17.12-.27.16s-.2.06-.32.06zM24.59 20.55v1.55h-.32v-1.55h.32zm.61.66v.25h-.7v-.25h.7zm.08-.66v.25h-.78v-.25h.78zm1.46.74v.07c0 .12-.02.23-.05.32s-.08.18-.14.24c-.05.07-.12.12-.2.15s-.17.05-.27.05-.19-.01-.27-.05-.15-.08-.2-.15c-.07-.07-.11-.15-.14-.24s-.05-.2-.05-.32v-.07c0-.12.01-.22.04-.32a.62.62 0 0 1 .62-.44c.1 0 .18.02.26.05s.15.09.21.15a.79.79 0 0 1 .18.56zm-.33.07v-.07c0-.08 0-.16-.02-.22s-.03-.11-.06-.16-.07-.07-.11-.1l-.14-.03c-.04 0-.1.01-.15.04-.04.02-.07.05-.1.1s-.05.09-.07.15a.94.94 0 0 0-.02.22v.07c0 .09 0 .16.02.22l.07.16a.3.3 0 0 0 .25.13c.05 0 .1-.01.14-.03s.08-.06.1-.1c.04-.04.06-.1.07-.16l.02-.22zm1.36.34v-.08c0-.02-.03-.04-.05-.06l-.1-.06a1.1 1.1 0 0 0-.15-.05l-.2-.08a.96.96 0 0 1-.17-.1c-.04-.04-.08-.08-.1-.13s-.05-.11-.05-.18c0-.07.01-.12.04-.18s.07-.1.12-.13c.05-.04.11-.07.18-.09s.15-.03.23-.03c.12 0 .22.02.3.06s.15.1.2.17c.05.07.07.15.07.25h-.31c0-.05-.01-.09-.03-.12s-.05-.06-.09-.08a.3.3 0 0 0-.14-.03c-.06 0-.1 0-.14.02s-.06.04-.08.07a.17.17 0 0 0-.03.1c0 .02 0 .04.02.06l.06.06.1.06.13.04.22.09.16.1c.05.05.08.1.1.14s.03.11.03.17c0 .07 0 .13-.03.19s-.07.1-.12.13c-.05.04-.1.07-.18.08s-.14.03-.23.03c-.07 0-.15 0-.22-.03s-.15-.05-.2-.09c-.07-.04-.12-.1-.15-.16s-.06-.14-.06-.22h.32l.03.12a.2.2 0 0 0 .06.08l.1.04a.5.5 0 0 0 .26 0 .17.17 0 0 0 .1-.16zM29 20.55v1.55h-.31v-1.55H29zm.48 0v.25h-1.26v-.25h1.26zm1.22 1.3v.25h-.82v-.25h.82zm-.72-1.3v1.55h-.32v-1.55h.32zm.62.63v.25h-.72v-.25h.72zm.1-.63v.25h-.82v-.25h.82zm.2 0h.57c.12 0 .22.02.3.05s.16.1.2.16.07.16.07.26a.42.42 0 0 1-.16.36.63.63 0 0 1-.18.1l-.1.05h-.5v-.25h.37c.06 0 .1-.01.14-.03s.07-.05.09-.08a.26.26 0 0 0 .02-.13c0-.05 0-.1-.02-.13s-.05-.06-.09-.08-.08-.03-.14-.03h-.26v1.3h-.32v-1.55zm.86 1.55-.36-.69h.34l.36.68v.01h-.34zm1.68-.55h-.4v-.25h.4c.06 0 .1-.01.15-.03s.06-.05.08-.09c.02-.03.03-.07.03-.12s-.01-.09-.03-.13l-.08-.1c-.03-.02-.1-.03-.15-.03h-.29v1.3h-.32v-1.55h.6c.13 0 .23.02.32.07s.15.1.2.18a.5.5 0 0 1 .07.26c0 .1-.03.19-.07.26s-.11.13-.2.17a.74.74 0 0 1-.31.06zm1.84.3v.25h-.83v-.25h.83zm-.72-1.3v1.55h-.32v-1.55h.32zm.61.63v.25h-.72v-.25h.72zm.1-.63v.25h-.82v-.25h.83zm.91 0v1.55h-.32v-1.55h.32zm.48 0v.25h-1.27v-.25h1.27zm1.22 1.3v.25h-.82v-.25h.82zm-.72-1.3v1.55h-.32v-1.55h.32zm.61.63v.25h-.71v-.25h.71zm.11-.63v.25h-.82v-.25h.82zm.19 0h.58c.12 0 .22.02.3.05s.15.1.2.16.07.16.07.26a.42.42 0 0 1-.16.36.64.64 0 0 1-.18.1l-.1.05h-.5v-.25h.37c.06 0 .1-.01.14-.03s.06-.05.08-.08a.26.26 0 0 0 .03-.13c0-.05 0-.1-.03-.13s-.04-.06-.08-.08a.31.31 0 0 0-.14-.03h-.26v1.3h-.32v-1.55zm.87 1.55-.36-.69h.34l.36.68v.01h-.35zm1.33-.4a.2.2 0 0 0-.01-.08c0-.02-.02-.04-.04-.06l-.1-.06-.15-.05-.2-.08a.96.96 0 0 1-.17-.1c-.05-.04-.08-.08-.11-.13s-.04-.11-.04-.18c0-.07.01-.12.04-.18s.07-.1.12-.13a.57.57 0 0 1 .18-.09.81.81 0 0 1 .53.03c.09.04.15.1.2.17.05.07.07.15.07.25h-.32c0-.05 0-.09-.03-.12-.01-.04-.04-.06-.08-.08s-.09-.03-.14-.03c-.06 0-.1 0-.14.02l-.09.07a.16.16 0 0 0-.02.1c0 .02 0 .04.02.06l.06.06.1.06.13.04.22.09c.07.03.12.07.16.1s.08.1.1.14c.02.05.03.11.03.17 0 .07-.01.13-.04.19s-.06.1-.11.13c-.05.04-.11.07-.18.08s-.15.03-.23.03c-.08 0-.15 0-.23-.03s-.14-.05-.2-.09c-.06-.04-.1-.1-.15-.16s-.05-.14-.05-.22h.32c0 .04 0 .08.02.12l.07.08c.02.02.06.03.1.04a.5.5 0 0 0 .26 0 .17.17 0 0 0 .1-.16z" style="fill:var(--color3, #8e8f99)"/></symbol>
<symbol id="icon-Client-5" viewBox="0 0 61 32"><path fill="#8e8f99" d="M21.38 21.95c.09.1.14.23.13.36 0 .08 0 .16-.04.24s-.1.15-.16.2a.97.97 0 0 1-.61.16h-1.06v-2.23h1.04c.2 0 .4.04.58.15a.51.51 0 0 1 .2.42c0 .12-.04.24-.12.34a.58.58 0 0 1-.32.17c.14.03.27.1.36.2zm-1.25-.33h.45c.1 0 .2-.02.28-.08.03-.02.06-.06.08-.1s.02-.07.02-.12a.26.26 0 0 0-.1-.21.46.46 0 0 0-.3-.08h-.43v.59zm.77.85c.04-.03.07-.06.09-.1s.02-.08.02-.12c0-.05 0-.09-.03-.13s-.04-.07-.08-.1a.5.5 0 0 0-.3-.08h-.47v.6h.48c.1.02.2-.01.3-.07zM23.5 22.91l-.57-.87h-.22v.87h-.5v-2.23h.95a1 1 0 0 1 .65.2c.14.11.22.27.23.44s-.04.34-.16.47a.8.8 0 0 1-.45.23l.62.9h-.54zm-.79-1.17h.4c.3 0 .43-.12.43-.34 0-.05 0-.1-.02-.14l-.08-.11a.48.48 0 0 0-.32-.1h-.41v.69zM26.23 22.46h-.99l-.17.45h-.53l.92-2.2h.56l.9 2.2h-.51l-.18-.45zm-.13-.33-.36-.94-.36.94h.72zM29.64 22.91h-.49l-1.11-1.51v1.51h-.5v-2.23h.5l1.11 1.53v-1.53h.5v2.23zM32.47 22.38c-.1.17-.26.3-.45.4-.21.09-.45.14-.7.13h-.88v-2.23h.88c.25 0 .48.04.7.14.19.09.35.22.45.39a1.2 1.2 0 0 1 0 1.17zm-.57-.05a.76.76 0 0 0 0-1.06.93.93 0 0 0-.62-.2h-.34v1.44h.34c.23.02.45-.05.62-.19zM26.54 8.28s6.4 2.17 6.25 5.31v5.32s-6.38-2.18-6.24-5.32V8.28zM38.49 17.66a9.38 9.38 0 0 1 4.06-1.34v-1.67a8.2 8.2 0 0 0-4.06 3.01z" style="fill:var(--color3, #8e8f99)"/><path fill="#8e8f99" d="M37.76 18.16a8.43 8.43 0 0 1 4.79-3.86V9.51s-9.1 3.1-8.91 7.57v7.56s.4-.13 1.04-.4c0-.24 0-.48.03-.73.19-2.07 1.29-4 3.05-5.35z" style="fill:var(--color3, #8e8f99)"/><path fill="#8e8f99" d="M36.9 20.97a7.1 7.1 0 0 1 .32-1.55A6.94 6.94 0 0 0 35.29 24c.52-.22 1.12-.5 1.75-.83a7.08 7.08 0 0 1-.14-2.19zM37.26 21c-.06.66-.02 1.33.11 1.99 2.49-1.34 5.28-3.41 5.17-5.91v-.22a8.58 8.58 0 0 0-4.73 1.99c-.3.69-.49 1.41-.55 2.15z" style="fill:var(--color3, #8e8f99)"/></symbol>
<symbol id="icon-Client-6" viewBox="0 0 61 32"><path fill="#8e8f99" d="M31.1 15.8a1.07 1.07 0 0 1-.22-.73v-1.05c0-.32.08-.56.22-.73s.4-.25.75-.25c.34 0 .58.07.72.21.15.19.22.4.2.63v.25h-.6v-.5c-.02-.05-.05-.1-.1-.14a.35.35 0 0 0-.21-.06.37.37 0 0 0-.23.06.28.28 0 0 0-.1.16c-.02.09-.02.18-.02.26v1.28c-.01.12.01.24.07.36l.12.08c.04.02.1.03.16.02.08 0 .15-.01.21-.06.05-.04.08-.1.09-.15l.02-.26v-.25h.6v.23a.96.96 0 0 1-.21.66c-.14.16-.37.24-.72.24s-.6-.09-.75-.26zM33.6 15.8c-.16-.16-.24-.4-.24-.7v-1.11c0-.32.08-.55.23-.71s.4-.24.76-.24c.35 0 .6.08.75.24s.23.4.23.7v1.11c0 .31-.08.55-.23.72s-.4.24-.75.24-.6-.08-.76-.24zm1.03-.26c.05-.1.08-.21.07-.32v-1.36a.6.6 0 0 0-.07-.32c-.03-.04-.07-.07-.12-.09s-.1-.02-.16-.01c-.05-.01-.1 0-.16.01s-.1.05-.12.1a.6.6 0 0 0-.07.31v1.36c-.01.11.01.23.07.33l.12.08c.04.02.1.03.16.03a.4.4 0 0 0 .28-.11zM36.05 13.07h.64l.49 2.04.5-2.04h.62l.06 2.94h-.46l-.05-2.04-.48 2.04H37l-.5-2.05-.04 2.05H36l.06-2.94zM39.09 13.07h1c.57 0 .86.28.86.84 0 .53-.3.8-.9.8h-.35V16h-.62v-2.94zm.85 1.26.18-.01a.35.35 0 0 0 .16-.08c.07-.1.1-.22.09-.34 0-.09 0-.18-.03-.26 0-.03-.02-.06-.05-.08l-.07-.06a.63.63 0 0 0-.28-.05h-.24v.88h.24zM41.85 13.07h.66l.68 2.94h-.57l-.14-.68h-.6l-.13.68h-.58l.68-2.94zM42.4 15l-.23-1.23-.23 1.23h.46zM43.74 13.07h.44l.83 1.68v-1.68h.51v2.94h-.41l-.84-1.75v1.75h-.53v-2.94zM46.73 14.9l-.7-1.82h.59l.42 1.16.4-1.16H48l-.68 1.81v1.12h-.6V14.9zM32.06 17.3v.15h-.5v1.2h-.22v-1.2h-.5v-.15h1.22zM33.64 18.65h-.16l-.05-.01a.07.07 0 0 1-.02-.04l-.15-.32h-.7l-.15.32-.02.04a.07.07 0 0 1-.05.01h-.16l.62-1.34h.22l.62 1.34zm-1.02-.5h.58l-.25-.55a1.02 1.02 0 0 1-.04-.13l-.03.07-.02.06-.24.55zM34.7 18.52h.12a.66.66 0 0 0 .2-.04l.07-.04v-.3h-.26l-.02-.01V18h.47v.52a.9.9 0 0 1-.26.1 1.14 1.14 0 0 1-.34.04.94.94 0 0 1-.3-.05.66.66 0 0 1-.4-.35.7.7 0 0 1 0-.56c.02-.08.07-.16.14-.22s.16-.1.25-.14a1.06 1.06 0 0 1 .5-.03.8.8 0 0 1 .38.15l-.05.09-.02.01-.03.01-.04-.01a.94.94 0 0 1-.06-.03.74.74 0 0 0-.35-.08.74.74 0 0 0-.24.04.49.49 0 0 0-.3.27.63.63 0 0 0 0 .45c.03.06.07.12.12.17a.53.53 0 0 0 .43.14zM36.68 18.5h.68v.15h-.89V17.3h.22v1.2zM38.06 18.65h-.21V17.3h.21v1.35zM38.85 17.3l.03.03.9 1.02v-1.06h.19v1.36h-.1a.1.1 0 0 1-.05 0 .1.1 0 0 1-.04-.03l-.9-1.02v1.05h-.18V17.3h.11a.1.1 0 0 1 .04 0zM41.53 17.3v.15h-.75v.44h.6v.14h-.6v.46h.75v.15h-.97V17.3h.97zM19.34 8.97l9.4 2.3v8.07l-9.4-2.3V8.97zm-.6-.7v9.16l10.6 2.6v-9.15l-10.6-2.6z" style="fill:var(--color3, #8e8f99)"/><path fill="#8e8f99" d="m24.43 24.28-10.61-2.6v-9.15l10.6 2.6v9.15z" style="fill:var(--color3, #8e8f99)"/><path fill="#8e8f99" d="m18.92 8.86 9.28 2.28-3.95 3.4-9.28-2.27 3.95-3.4zm-.18-.58-4.92 4.25 10.6 2.6 4.93-4.25-10.6-2.6zM25.02 23.76l4.33-3.73-4.33-1.06v4.8z" style="fill:var(--color3, #8e8f99)"/></symbol>
<symbol id="icon-facebook" viewBox="0 0 32 32"><path  d="M21.33 5.31h2.92V.23C23.75.15 22.01 0 19.99 0c-4.2 0-7.1 2.65-7.1 7.52V12H8.26v5.69h4.65V32h5.7V17.69h4.46l.7-5.69H18.6V8.08c0-1.64.45-2.77 2.74-2.77z"/></symbol>
<symbol id="icon-instagram" viewBox="0 0 32 32"><path d="M31.97 9.4a11.7 11.7 0 0 0-.74-3.87 7.8 7.8 0 0 0-1.85-2.84A7.87 7.87 0 0 0 26.54.84C25.52.45 24.36.17 22.66.1 20.95.02 20.4 0 16.06 0s-4.89.02-6.6.1C7.76.16 6.6.43 5.58.83a7.8 7.8 0 0 0-2.83 1.85A7.87 7.87 0 0 0 .9 5.52C.5 6.54.23 7.7.16 9.4c-.08 1.71-.1 2.26-.1 6.6s.02 4.9.1 6.6c.07 1.7.34 2.87.73 3.88a7.9 7.9 0 0 0 1.85 2.84c.8.81 1.77 1.44 2.84 1.84 1.02.4 2.18.67 3.88.75 1.7.07 2.25.09 6.6.09s4.88-.02 6.59-.1a11.7 11.7 0 0 0 3.88-.74 8.18 8.18 0 0 0 4.68-4.68c.4-1.02.67-2.18.75-3.88.07-1.7.1-2.25.1-6.6s-.02-4.89-.09-6.6zm-2.88 13.07a8.76 8.76 0 0 1-.55 2.97 5.3 5.3 0 0 1-3.04 3.04c-.56.22-1.41.48-2.97.55-1.69.07-2.2.1-6.46.1s-4.79-.02-6.47-.1a8.76 8.76 0 0 1-2.97-.55 4.93 4.93 0 0 1-1.84-1.2 4.97 4.97 0 0 1-1.19-1.83 8.81 8.81 0 0 1-.55-2.97c-.07-1.69-.1-2.2-.1-6.47s.03-4.78.1-6.46c.07-1.56.33-2.4.55-2.97.26-.7.66-1.32 1.2-1.84a4.97 4.97 0 0 1 1.84-1.19A8.81 8.81 0 0 1 9.6 3c1.69-.07 2.2-.1 6.46-.1 4.28 0 4.78.03 6.47.1 1.56.07 2.4.33 2.96.55.7.26 1.33.66 1.84 1.2.53.51.94 1.14 1.2 1.83.22.57.48 1.42.55 2.97.07 1.69.1 2.2.1 6.46s-.03 4.77-.1 6.46z"/><path d="M16.06 7.78a8.22 8.22 0 1 0 0 16.45 8.22 8.22 0 0 0 0-16.45zm0 13.55a5.33 5.33 0 1 1 0-10.66 5.33 5.33 0 0 1 0 10.67zM26.52 7.46a1.92 1.92 0 1 1-3.83 0 1.92 1.92 0 0 1 3.83 0z"/></symbol>
<symbol id="icon-linkedin" viewBox="0 0 32 32"><path d="M32 32V20.26c0-5.74-1.24-10.16-7.95-10.16-3.23 0-5.39 1.77-6.27 3.45h-.1v-2.92h-6.36V32h6.63V21.42c0-2.79.52-5.48 3.97-5.48 3.4 0 3.45 3.18 3.45 5.66V32H32zM.53 10.64h6.63V32H.53V10.64zM3.84 0C1.72 0 0 1.72 0 3.84s1.72 3.88 3.84 3.88A3.88 3.88 0 0 0 7.7 3.84 3.85 3.85 0 0 0 3.84 0z"/></symbol>
<symbol id="icon-twitter" viewBox="0 0 32 32"><path d="M32 6.08c-1.19.52-2.46.87-3.78 1.03a6.52 6.52 0 0 0 2.89-3.62 13.11 13.11 0 0 1-4.16 1.59 6.57 6.57 0 0 0-11.2 5.98A18.57 18.57 0 0 1 2.23 4.2a6.57 6.57 0 0 0 2.02 8.77 6.48 6.48 0 0 1-2.97-.81v.07a6.59 6.59 0 0 0 5.26 6.44 6.55 6.55 0 0 1-2.97.1 6.62 6.62 0 0 0 6.13 4.58 13.18 13.18 0 0 1-9.7 2.7A18.47 18.47 0 0 0 10.06 29c12.08 0 18.68-10 18.68-18.67 0-.29-.01-.57-.03-.85 1.3-.92 2.4-2.07 3.29-3.4z"/></symbol></defs></svg>